<svg xmlns="http://www.w3.org/2000/svg"
 xmlns:xlink="http://www.w3.org/1999/xlink"
 width="60px" height="59px"  viewBox="0 0 60 59">
<path fill-rule="evenodd"  fill="#5474fd"
 d="M58.265625,54.812256 C58.265625,54.812256 55.312378,57.765625 55.312378,57.765625 C55.312378,57.765625 38.99994,41.45288 38.99994,41.45288 C38.061707,42.296753 37.03119,43.04834 35.90619,43.703003 C34.78119,44.360107 33.60785,44.922485 32.390564,45.390625 C31.171143,45.86084 29.881287,46.212402 28.523376,46.445312 C27.163269,46.680298 25.827332,46.796875 24.515625,46.796875 C21.327301,46.796875 18.350067,46.188232 15.585876,44.968506 C12.81955,43.751465 10.404724,42.109985 8.3437195,40.04663 C6.2804565,37.985596 4.6632996,35.571045 3.4921265,32.804565 C2.3188171,30.040405 1.734314,27.109375 1.734314,24.015503 C1.734314,20.82959 2.3188171,17.85205 3.4921265,15.0859375 C4.6632996,12.321777 6.2804565,9.90686 8.3437195,7.843628 C10.404724,5.782593 12.81955,4.165283 15.585876,2.9919434 C18.350067,1.8209229 21.327301,1.2341309 24.515625,1.2341309 C27.609375,1.2341309 30.538208,1.8209229 33.304688,2.9919434 C36.068848,4.165283 38.48358,5.782593 40.546814,7.843628 C42.60785,9.90686 44.249268,12.321777 45.46869,15.0859375 C46.685974,17.85205 47.296814,20.82959 47.296814,24.015503 C47.296814,25.329346 47.1781,26.665405 46.945312,28.023193 C46.710144,29.383423 46.35852,30.67334 45.890564,31.89038 C45.420288,33.110107 44.85791,34.281128 44.203125,35.406006 C43.54608,36.531006 42.796814,37.563843 41.953064,38.499878 C41.953064,38.499878 58.265625,54.812256 58.265625,54.812256 C58.265625,54.812256 58.265625,54.812256 58.265625,54.812256 ZM4.1249084,24.015503 C4.1249084,26.828003 4.63916,29.453613 5.6717834,31.89038 C6.702301,34.329468 8.154785,36.484985 10.03125,38.359375 C11.905457,40.23584 14.085144,41.71228 16.570251,42.78894 C19.053131,43.867798 21.703033,44.406128 24.515625,44.406128 C27.328064,44.406128 29.9516,43.867798 32.390564,42.78894 C34.82733,41.71228 36.98285,40.23584 38.859314,38.359375 C40.733643,36.484985 42.210144,34.329468 43.289,31.89038 C44.36566,29.453613 44.90619,26.828003 44.90619,24.015503 C44.90619,21.203003 44.36566,18.555176 43.289,16.070068 C42.210144,13.58728 40.733643,11.407593 38.859314,9.531128 C36.98285,7.6567383 34.82733,6.204468 32.390564,5.171631 C29.9516,4.1411133 27.328064,3.624878 24.515625,3.624878 C21.703033,3.624878 19.053131,4.1411133 16.570251,5.171631 C14.085144,6.204468 11.905457,7.6567383 10.03125,9.531128 C8.154785,11.407593 6.702301,13.58728 5.6717834,16.070068 C4.63916,18.555176 4.1249084,21.203003 4.1249084,24.015503 C4.1249084,24.015503 4.1249084,24.015503 4.1249084,24.015503 Z"/>
</svg>