<svg xmlns="http://www.w3.org/2000/svg"
 xmlns:xlink="http://www.w3.org/1999/xlink"
 width="62px" height="63px"  viewBox="0 0 62 63">
<path fill-rule="evenodd"  fill="#ff6363"
 d="M31.0,1.546875 C35.124146,1.546875 39.015625,2.3201904 42.671814,3.8669434 C46.328064,5.4140625 49.5141,7.5476074 52.234314,10.265381 C54.95233,12.985718 57.085876,16.171753 58.63275,19.828125 C60.179626,23.484253 60.953064,27.37561 60.953064,31.5 C60.953064,35.626343 60.179626,39.51538 58.63275,43.171753 C57.085876,46.828003 54.95233,50.016235 52.234314,52.734253 C49.5141,55.454346 46.328064,57.585938 42.671814,59.13269 C39.015625,60.679443 35.124146,61.453125 31.0,61.453125 C26.873474,61.453125 22.984253,60.679443 19.328125,59.13269 C15.671814,57.585938 12.483643,55.454346 9.765625,52.734253 C7.04541,50.016235 4.9140015,46.828003 3.3671265,43.171753 C1.8202515,39.51538 1.046814,35.626343 1.046814,31.5 C1.046814,27.37561 1.8202515,23.484253 3.3671265,19.828125 C4.9140015,16.171753 7.04541,12.985718 9.765625,10.265381 C12.483643,7.5476074 15.671814,5.4140625 19.328125,3.8669434 C22.984253,2.3201904 26.873474,1.546875 31.0,1.546875 C31.0,1.546875 31.0,1.546875 31.0,1.546875 ZM31.0,59.062378 C34.842957,59.062378 38.428833,58.337402 41.757812,56.882812 C45.08441,55.430176 48.015625,53.485718 50.546875,51.046753 C52.98358,48.515503 54.928223,45.58667 56.38269,42.25769 C57.835205,38.93091 58.5625,35.34497 58.5625,31.5 C58.5625,27.656982 57.835205,24.0708 56.38269,20.742065 C54.928223,17.415283 52.98358,14.484131 50.546875,11.953003 C48.015625,9.516235 45.08441,7.5717773 41.757812,6.1171875 C38.428833,4.664551 34.842957,3.9372559 31.0,3.9372559 C27.154785,3.9372559 23.568787,4.664551 20.242065,6.1171875 C16.913269,7.5717773 13.984253,9.516235 11.453003,11.953003 C9.01416,14.484131 7.069519,17.415283 5.6171875,20.742065 C4.1625977,24.0708 3.437378,27.656982 3.437378,31.5 C3.437378,35.34497 4.1625977,38.93091 5.6171875,42.25769 C7.069519,45.58667 9.01416,48.515503 11.453003,51.046753 C13.984253,53.485718 16.913269,55.430176 20.242065,56.882812 C23.568787,58.337402 27.154785,59.062378 31.0,59.062378 C31.0,59.062378 31.0,59.062378 31.0,59.062378 ZM46.046875,20.812256 C46.328064,20.438843 46.72577,20.249878 47.242188,20.249878 C47.756287,20.249878 48.20227,20.438843 48.578125,20.812256 C48.859314,21.187988 49.0,21.634033 49.0,22.148315 C49.0,22.66455 48.810913,23.0625 48.4375,23.34375 C48.4375,23.34375 27.90625,43.312378 27.90625,43.312378 C27.811707,43.50122 27.646912,43.617798 27.414001,43.66394 C27.178955,43.71228 26.968018,43.73413 26.781189,43.73413 C26.499878,43.73413 26.240662,43.71228 26.007751,43.66394 C25.772705,43.617798 25.60791,43.50122 25.515503,43.312378 C25.515503,43.312378 17.499878,35.29663 17.499878,35.29663 C17.124207,34.923218 16.9375,34.477173 16.9375,33.960938 C16.9375,33.446655 17.124207,33.046753 17.499878,32.76538 C17.781189,32.391968 18.178955,32.203125 18.695312,32.203125 C19.209412,32.203125 19.655457,32.391968 20.031189,32.76538 C20.031189,32.76538 26.781189,39.51538 26.781189,39.51538 C26.781189,39.51538 46.046875,20.812256 46.046875,20.812256 C46.046875,20.812256 46.046875,20.812256 46.046875,20.812256 Z"/>
</svg>